<mxfile host="app.diagrams.net" modified="2023-11-26T16:47:36.016Z" agent="Mozilla/5.0 (Windows NT 10.0; Win64; x64) AppleWebKit/537.36 (KHTML, like Gecko) Chrome/119.0.0.0 Safari/537.36 Edg/119.0.0.0" etag="4bpgAj21QQZmkaM8cuyb" version="22.1.4" type="device">
  <diagram id="C5RBs43oDa-KdzZeNtuy" name="Page-1">
    <mxGraphModel dx="1426" dy="797" grid="1" gridSize="10" guides="1" tooltips="1" connect="1" arrows="1" fold="1" page="1" pageScale="1" pageWidth="827" pageHeight="1169" math="0" shadow="0">
      <root>
        <mxCell id="WIyWlLk6GJQsqaUBKTNV-0" />
        <mxCell id="WIyWlLk6GJQsqaUBKTNV-1" parent="WIyWlLk6GJQsqaUBKTNV-0" />
        <mxCell id="wQBncykb8mncGLTDzhFL-85" style="edgeStyle=orthogonalEdgeStyle;rounded=0;orthogonalLoop=1;jettySize=auto;html=1;entryX=0.5;entryY=0;entryDx=0;entryDy=0;" parent="WIyWlLk6GJQsqaUBKTNV-1" source="wQBncykb8mncGLTDzhFL-16" target="wQBncykb8mncGLTDzhFL-22" edge="1">
          <mxGeometry relative="1" as="geometry" />
        </mxCell>
        <mxCell id="wQBncykb8mncGLTDzhFL-16" value="Aktion wird zugeordnet" style="rounded=1;whiteSpace=wrap;html=1;fontSize=12;glass=0;strokeWidth=1;shadow=0;" parent="WIyWlLk6GJQsqaUBKTNV-1" vertex="1">
          <mxGeometry x="320" y="200" width="120" height="40" as="geometry" />
        </mxCell>
        <mxCell id="wQBncykb8mncGLTDzhFL-28" style="edgeStyle=orthogonalEdgeStyle;rounded=0;orthogonalLoop=1;jettySize=auto;html=1;entryX=0.5;entryY=0;entryDx=0;entryDy=0;" parent="WIyWlLk6GJQsqaUBKTNV-1" source="wQBncykb8mncGLTDzhFL-17" target="wQBncykb8mncGLTDzhFL-16" edge="1">
          <mxGeometry relative="1" as="geometry" />
        </mxCell>
        <mxCell id="wQBncykb8mncGLTDzhFL-17" value="Variablen werden zurückgesetzt" style="rounded=1;whiteSpace=wrap;html=1;fontSize=12;glass=0;strokeWidth=1;shadow=0;" parent="WIyWlLk6GJQsqaUBKTNV-1" vertex="1">
          <mxGeometry x="320" y="120" width="120" height="40" as="geometry" />
        </mxCell>
        <mxCell id="wQBncykb8mncGLTDzhFL-38" style="edgeStyle=orthogonalEdgeStyle;rounded=0;orthogonalLoop=1;jettySize=auto;html=1;" parent="WIyWlLk6GJQsqaUBKTNV-1" source="wQBncykb8mncGLTDzhFL-18" edge="1">
          <mxGeometry relative="1" as="geometry">
            <mxPoint x="530" y="671" as="targetPoint" />
          </mxGeometry>
        </mxCell>
        <mxCell id="wQBncykb8mncGLTDzhFL-39" value="nein" style="edgeLabel;html=1;align=center;verticalAlign=middle;resizable=0;points=[];" parent="wQBncykb8mncGLTDzhFL-38" vertex="1" connectable="0">
          <mxGeometry x="-0.25" y="1" relative="1" as="geometry">
            <mxPoint as="offset" />
          </mxGeometry>
        </mxCell>
        <mxCell id="wQBncykb8mncGLTDzhFL-105" style="edgeStyle=orthogonalEdgeStyle;rounded=0;orthogonalLoop=1;jettySize=auto;html=1;" parent="WIyWlLk6GJQsqaUBKTNV-1" source="wQBncykb8mncGLTDzhFL-18" target="wQBncykb8mncGLTDzhFL-21" edge="1">
          <mxGeometry relative="1" as="geometry" />
        </mxCell>
        <mxCell id="wQBncykb8mncGLTDzhFL-160" value="ja" style="edgeLabel;html=1;align=center;verticalAlign=middle;resizable=0;points=[];" parent="wQBncykb8mncGLTDzhFL-105" vertex="1" connectable="0">
          <mxGeometry x="-0.15" y="-3" relative="1" as="geometry">
            <mxPoint y="-3" as="offset" />
          </mxGeometry>
        </mxCell>
        <mxCell id="wQBncykb8mncGLTDzhFL-18" value="Extra-Wahl-Bonus?" style="rhombus;whiteSpace=wrap;html=1;shadow=0;fontFamily=Helvetica;fontSize=12;align=center;strokeWidth=1;spacing=6;spacingTop=-4;" parent="WIyWlLk6GJQsqaUBKTNV-1" vertex="1">
          <mxGeometry x="480" y="520" width="100" height="80" as="geometry" />
        </mxCell>
        <mxCell id="wQBncykb8mncGLTDzhFL-106" style="edgeStyle=orthogonalEdgeStyle;rounded=0;orthogonalLoop=1;jettySize=auto;html=1;" parent="WIyWlLk6GJQsqaUBKTNV-1" source="wQBncykb8mncGLTDzhFL-21" edge="1">
          <mxGeometry relative="1" as="geometry">
            <mxPoint x="670" y="671" as="targetPoint" />
          </mxGeometry>
        </mxCell>
        <mxCell id="wQBncykb8mncGLTDzhFL-107" value="nein" style="edgeLabel;html=1;align=center;verticalAlign=middle;resizable=0;points=[];" parent="wQBncykb8mncGLTDzhFL-106" vertex="1" connectable="0">
          <mxGeometry x="-0.1831" y="-2" relative="1" as="geometry">
            <mxPoint as="offset" />
          </mxGeometry>
        </mxCell>
        <mxCell id="wQBncykb8mncGLTDzhFL-108" style="edgeStyle=orthogonalEdgeStyle;rounded=0;orthogonalLoop=1;jettySize=auto;html=1;" parent="WIyWlLk6GJQsqaUBKTNV-1" source="wQBncykb8mncGLTDzhFL-21" target="wQBncykb8mncGLTDzhFL-57" edge="1">
          <mxGeometry relative="1" as="geometry" />
        </mxCell>
        <mxCell id="wQBncykb8mncGLTDzhFL-109" value="ja" style="edgeLabel;html=1;align=center;verticalAlign=middle;resizable=0;points=[];" parent="wQBncykb8mncGLTDzhFL-108" vertex="1" connectable="0">
          <mxGeometry x="-0.148" y="-2" relative="1" as="geometry">
            <mxPoint x="-2" as="offset" />
          </mxGeometry>
        </mxCell>
        <mxCell id="wQBncykb8mncGLTDzhFL-21" value="aussetzen?" style="rhombus;whiteSpace=wrap;html=1;shadow=0;fontFamily=Helvetica;fontSize=12;align=center;strokeWidth=1;spacing=6;spacingTop=-4;" parent="WIyWlLk6GJQsqaUBKTNV-1" vertex="1">
          <mxGeometry x="620" y="520" width="100" height="80" as="geometry" />
        </mxCell>
        <mxCell id="wQBncykb8mncGLTDzhFL-89" style="edgeStyle=orthogonalEdgeStyle;rounded=0;orthogonalLoop=1;jettySize=auto;html=1;" parent="WIyWlLk6GJQsqaUBKTNV-1" source="wQBncykb8mncGLTDzhFL-22" target="wQBncykb8mncGLTDzhFL-58" edge="1">
          <mxGeometry relative="1" as="geometry" />
        </mxCell>
        <mxCell id="wQBncykb8mncGLTDzhFL-90" value="nein" style="edgeLabel;html=1;align=center;verticalAlign=middle;resizable=0;points=[];" parent="wQBncykb8mncGLTDzhFL-89" vertex="1" connectable="0">
          <mxGeometry x="-0.04" relative="1" as="geometry">
            <mxPoint as="offset" />
          </mxGeometry>
        </mxCell>
        <mxCell id="wQBncykb8mncGLTDzhFL-135" style="edgeStyle=orthogonalEdgeStyle;rounded=0;orthogonalLoop=1;jettySize=auto;html=1;entryX=0.5;entryY=0;entryDx=0;entryDy=0;" parent="WIyWlLk6GJQsqaUBKTNV-1" source="wQBncykb8mncGLTDzhFL-22" target="wQBncykb8mncGLTDzhFL-134" edge="1">
          <mxGeometry relative="1" as="geometry" />
        </mxCell>
        <mxCell id="wQBncykb8mncGLTDzhFL-136" value="ja" style="edgeLabel;html=1;align=center;verticalAlign=middle;resizable=0;points=[];" parent="wQBncykb8mncGLTDzhFL-135" vertex="1" connectable="0">
          <mxGeometry x="-0.25" relative="1" as="geometry">
            <mxPoint as="offset" />
          </mxGeometry>
        </mxCell>
        <mxCell id="wQBncykb8mncGLTDzhFL-22" value="gültige Aktion?" style="rhombus;whiteSpace=wrap;html=1;shadow=0;fontFamily=Helvetica;fontSize=12;align=center;strokeWidth=1;spacing=6;spacingTop=-4;" parent="WIyWlLk6GJQsqaUBKTNV-1" vertex="1">
          <mxGeometry x="330" y="280" width="100" height="80" as="geometry" />
        </mxCell>
        <mxCell id="wQBncykb8mncGLTDzhFL-46" style="edgeStyle=orthogonalEdgeStyle;rounded=0;orthogonalLoop=1;jettySize=auto;html=1;" parent="WIyWlLk6GJQsqaUBKTNV-1" source="wQBncykb8mncGLTDzhFL-26" edge="1">
          <mxGeometry relative="1" as="geometry">
            <mxPoint x="232" y="671" as="targetPoint" />
          </mxGeometry>
        </mxCell>
        <mxCell id="wQBncykb8mncGLTDzhFL-161" value="ja" style="edgeLabel;html=1;align=center;verticalAlign=middle;resizable=0;points=[];" parent="wQBncykb8mncGLTDzhFL-46" vertex="1" connectable="0">
          <mxGeometry x="-0.1567" y="-2" relative="1" as="geometry">
            <mxPoint x="2" as="offset" />
          </mxGeometry>
        </mxCell>
        <mxCell id="wQBncykb8mncGLTDzhFL-47" style="edgeStyle=orthogonalEdgeStyle;rounded=0;orthogonalLoop=1;jettySize=auto;html=1;" parent="WIyWlLk6GJQsqaUBKTNV-1" source="wQBncykb8mncGLTDzhFL-26" edge="1">
          <mxGeometry relative="1" as="geometry">
            <mxPoint x="92" y="671" as="targetPoint" />
          </mxGeometry>
        </mxCell>
        <mxCell id="wQBncykb8mncGLTDzhFL-163" value="nein" style="edgeLabel;html=1;align=center;verticalAlign=middle;resizable=0;points=[];" parent="wQBncykb8mncGLTDzhFL-47" vertex="1" connectable="0">
          <mxGeometry x="0.5911" y="-2" relative="1" as="geometry">
            <mxPoint as="offset" />
          </mxGeometry>
        </mxCell>
        <mxCell id="wQBncykb8mncGLTDzhFL-26" value="Bonusrunde?" style="rhombus;whiteSpace=wrap;html=1;shadow=0;fontFamily=Helvetica;fontSize=12;align=center;strokeWidth=1;spacing=6;spacingTop=-4;" parent="WIyWlLk6GJQsqaUBKTNV-1" vertex="1">
          <mxGeometry x="182" y="520" width="100" height="80" as="geometry" />
        </mxCell>
        <mxCell id="wQBncykb8mncGLTDzhFL-31" style="edgeStyle=orthogonalEdgeStyle;rounded=0;orthogonalLoop=1;jettySize=auto;html=1;exitX=1;exitY=0.5;exitDx=0;exitDy=0;entryX=0;entryY=0.5;entryDx=0;entryDy=0;" parent="WIyWlLk6GJQsqaUBKTNV-1" source="wQBncykb8mncGLTDzhFL-27" target="wQBncykb8mncGLTDzhFL-18" edge="1">
          <mxGeometry relative="1" as="geometry" />
        </mxCell>
        <mxCell id="wQBncykb8mncGLTDzhFL-33" value="ja" style="edgeLabel;html=1;align=center;verticalAlign=middle;resizable=0;points=[];" parent="wQBncykb8mncGLTDzhFL-31" vertex="1" connectable="0">
          <mxGeometry x="-0.0444" y="1" relative="1" as="geometry">
            <mxPoint x="1" y="1" as="offset" />
          </mxGeometry>
        </mxCell>
        <mxCell id="wQBncykb8mncGLTDzhFL-32" style="edgeStyle=orthogonalEdgeStyle;rounded=0;orthogonalLoop=1;jettySize=auto;html=1;exitX=0;exitY=0.5;exitDx=0;exitDy=0;entryX=1;entryY=0.5;entryDx=0;entryDy=0;" parent="WIyWlLk6GJQsqaUBKTNV-1" source="wQBncykb8mncGLTDzhFL-27" target="wQBncykb8mncGLTDzhFL-26" edge="1">
          <mxGeometry relative="1" as="geometry" />
        </mxCell>
        <mxCell id="wQBncykb8mncGLTDzhFL-34" value="nein" style="edgeLabel;html=1;align=center;verticalAlign=middle;resizable=0;points=[];" parent="wQBncykb8mncGLTDzhFL-32" vertex="1" connectable="0">
          <mxGeometry x="-0.1778" y="-1" relative="1" as="geometry">
            <mxPoint x="-3" y="1" as="offset" />
          </mxGeometry>
        </mxCell>
        <mxCell id="wQBncykb8mncGLTDzhFL-27" value="Extra Wahl?" style="rhombus;whiteSpace=wrap;html=1;shadow=0;fontFamily=Helvetica;fontSize=12;align=center;strokeWidth=1;spacing=6;spacingTop=-4;" parent="WIyWlLk6GJQsqaUBKTNV-1" vertex="1">
          <mxGeometry x="330" y="520" width="100" height="80" as="geometry" />
        </mxCell>
        <mxCell id="AvJyN8imwYsC9UIC00U6-3" style="edgeStyle=orthogonalEdgeStyle;rounded=0;orthogonalLoop=1;jettySize=auto;html=1;" edge="1" parent="WIyWlLk6GJQsqaUBKTNV-1" source="wQBncykb8mncGLTDzhFL-57" target="AvJyN8imwYsC9UIC00U6-1">
          <mxGeometry relative="1" as="geometry" />
        </mxCell>
        <mxCell id="wQBncykb8mncGLTDzhFL-57" value="Runde wird inkrementiert" style="rounded=1;whiteSpace=wrap;html=1;fontSize=12;glass=0;strokeWidth=1;shadow=0;" parent="WIyWlLk6GJQsqaUBKTNV-1" vertex="1">
          <mxGeometry x="610" y="320" width="120" height="40" as="geometry" />
        </mxCell>
        <mxCell id="wQBncykb8mncGLTDzhFL-96" style="edgeStyle=orthogonalEdgeStyle;rounded=0;orthogonalLoop=1;jettySize=auto;html=1;entryX=0.5;entryY=1;entryDx=0;entryDy=0;" parent="WIyWlLk6GJQsqaUBKTNV-1" source="wQBncykb8mncGLTDzhFL-58" target="wQBncykb8mncGLTDzhFL-95" edge="1">
          <mxGeometry relative="1" as="geometry" />
        </mxCell>
        <mxCell id="wQBncykb8mncGLTDzhFL-58" value="Runde wird inkrementiert" style="rounded=1;whiteSpace=wrap;html=1;fontSize=12;glass=0;strokeWidth=1;shadow=0;" parent="WIyWlLk6GJQsqaUBKTNV-1" vertex="1">
          <mxGeometry x="162" y="300" width="120" height="40" as="geometry" />
        </mxCell>
        <mxCell id="wQBncykb8mncGLTDzhFL-93" style="edgeStyle=orthogonalEdgeStyle;rounded=0;orthogonalLoop=1;jettySize=auto;html=1;entryX=0.5;entryY=0;entryDx=0;entryDy=0;" parent="WIyWlLk6GJQsqaUBKTNV-1" source="wQBncykb8mncGLTDzhFL-92" target="wQBncykb8mncGLTDzhFL-17" edge="1">
          <mxGeometry relative="1" as="geometry" />
        </mxCell>
        <mxCell id="wQBncykb8mncGLTDzhFL-92" value="Aktion wird entgegengenommen" style="rounded=0;whiteSpace=wrap;html=1;" parent="WIyWlLk6GJQsqaUBKTNV-1" vertex="1">
          <mxGeometry x="320" y="40" width="120" height="40" as="geometry" />
        </mxCell>
        <mxCell id="wQBncykb8mncGLTDzhFL-95" value="Zustand wird returned" style="rounded=0;whiteSpace=wrap;html=1;" parent="WIyWlLk6GJQsqaUBKTNV-1" vertex="1">
          <mxGeometry x="162" y="200" width="120" height="40" as="geometry" />
        </mxCell>
        <mxCell id="wQBncykb8mncGLTDzhFL-111" value="Zustand wird returned" style="rounded=0;whiteSpace=wrap;html=1;" parent="WIyWlLk6GJQsqaUBKTNV-1" vertex="1">
          <mxGeometry x="610" y="160" width="120" height="40" as="geometry" />
        </mxCell>
        <mxCell id="wQBncykb8mncGLTDzhFL-137" style="edgeStyle=orthogonalEdgeStyle;rounded=0;orthogonalLoop=1;jettySize=auto;html=1;" parent="WIyWlLk6GJQsqaUBKTNV-1" source="wQBncykb8mncGLTDzhFL-134" target="wQBncykb8mncGLTDzhFL-27" edge="1">
          <mxGeometry relative="1" as="geometry" />
        </mxCell>
        <mxCell id="wQBncykb8mncGLTDzhFL-138" value="nein" style="edgeLabel;html=1;align=center;verticalAlign=middle;resizable=0;points=[];" parent="wQBncykb8mncGLTDzhFL-137" vertex="1" connectable="0">
          <mxGeometry x="-0.2" y="-1" relative="1" as="geometry">
            <mxPoint as="offset" />
          </mxGeometry>
        </mxCell>
        <mxCell id="wQBncykb8mncGLTDzhFL-140" style="edgeStyle=orthogonalEdgeStyle;rounded=0;orthogonalLoop=1;jettySize=auto;html=1;" parent="WIyWlLk6GJQsqaUBKTNV-1" source="wQBncykb8mncGLTDzhFL-134" target="wQBncykb8mncGLTDzhFL-139" edge="1">
          <mxGeometry relative="1" as="geometry" />
        </mxCell>
        <mxCell id="wQBncykb8mncGLTDzhFL-142" value="ja" style="edgeLabel;html=1;align=center;verticalAlign=middle;resizable=0;points=[];" parent="wQBncykb8mncGLTDzhFL-140" vertex="1" connectable="0">
          <mxGeometry x="-0.2083" relative="1" as="geometry">
            <mxPoint as="offset" />
          </mxGeometry>
        </mxCell>
        <mxCell id="wQBncykb8mncGLTDzhFL-134" value="Neuer-Wurf Bonus?" style="rhombus;whiteSpace=wrap;html=1;shadow=0;fontFamily=Helvetica;fontSize=12;align=center;strokeWidth=1;spacing=6;spacingTop=-4;" parent="WIyWlLk6GJQsqaUBKTNV-1" vertex="1">
          <mxGeometry x="330" y="400" width="100" height="80" as="geometry" />
        </mxCell>
        <mxCell id="wQBncykb8mncGLTDzhFL-141" style="edgeStyle=orthogonalEdgeStyle;rounded=0;orthogonalLoop=1;jettySize=auto;html=1;entryX=0;entryY=0.5;entryDx=0;entryDy=0;" parent="WIyWlLk6GJQsqaUBKTNV-1" source="wQBncykb8mncGLTDzhFL-139" target="wQBncykb8mncGLTDzhFL-95" edge="1">
          <mxGeometry relative="1" as="geometry">
            <Array as="points">
              <mxPoint x="120" y="440" />
              <mxPoint x="120" y="220" />
            </Array>
          </mxGeometry>
        </mxCell>
        <mxCell id="wQBncykb8mncGLTDzhFL-139" value="Würfel werden neu geworfen" style="rounded=1;whiteSpace=wrap;html=1;fontSize=12;glass=0;strokeWidth=1;shadow=0;" parent="WIyWlLk6GJQsqaUBKTNV-1" vertex="1">
          <mxGeometry x="162" y="420" width="120" height="40" as="geometry" />
        </mxCell>
        <mxCell id="AvJyN8imwYsC9UIC00U6-2" style="edgeStyle=orthogonalEdgeStyle;rounded=0;orthogonalLoop=1;jettySize=auto;html=1;entryX=0.5;entryY=1;entryDx=0;entryDy=0;" edge="1" parent="WIyWlLk6GJQsqaUBKTNV-1" source="AvJyN8imwYsC9UIC00U6-1" target="wQBncykb8mncGLTDzhFL-111">
          <mxGeometry relative="1" as="geometry" />
        </mxCell>
        <mxCell id="AvJyN8imwYsC9UIC00U6-1" value="Check ob Spiel terminiert ist" style="rounded=1;whiteSpace=wrap;html=1;fontSize=12;glass=0;strokeWidth=1;shadow=0;" vertex="1" parent="WIyWlLk6GJQsqaUBKTNV-1">
          <mxGeometry x="610" y="240" width="120" height="40" as="geometry" />
        </mxCell>
      </root>
    </mxGraphModel>
  </diagram>
</mxfile>
